999
DXF created from QGIS
  0
SECTION
  2
HEADER
  9
$ACADVER
  1
AC1015
  9
$EXTMIN
 10
-83.79957199999999773
 20
42.22266799999999876
 30
0.0
  9
$EXTMAX
 10
-83.67580700000000604
 20
42.32397100000000023
 30
0.0
  9
$LTSCALE
 40
1.0
  9
$PDMODE
 70
    33
  9
$PDSIZE
 40
     1
  9
$PSLTSCALE
 70
     0
  9
$HANDSEED
  5
9999999
  9
$DWGCODEPAGE
  3
ANSI_1252
  0
ENDSEC
  0
SECTION
  2
TABLES
  0
TABLE
  2
LTYPE
  5
64
100
AcDbSymbolTable
 70
     5
  0
LTYPE
  5
65
100
AcDbSymbolTableRecord
100
AcDbLinetypeTableRecord
  2
ByLayer
 70
    64
  3
Defaultstyle
 72
    65
 73
     0
 40
0.0
  0
LTYPE
  5
66
100
AcDbSymbolTableRecord
100
AcDbLinetypeTableRecord
  2
ByBlock
 70
    64
  3
Defaultstyle
 72
    65
 73
     0
 40
0.0
  0
LTYPE
  5
67
100
AcDbSymbolTableRecord
100
AcDbLinetypeTableRecord
  2
CONTINUOUS
 70
    64
  3
Defaultstyle
 72
    65
 73
     0
 40
0.0
  0
LTYPE
  5
68
100
AcDbSymbolTableRecord
100
AcDbLinetypeTableRecord
  2
DASH
 70
    64
  3

 72
    65
 73
     2
 40
0.00000002335619739
 49
0.00000001796630568
 74
     0
 49
-0.0000000053898917
 74
     0
  0
LTYPE
  5
69
100
AcDbSymbolTableRecord
100
AcDbLinetypeTableRecord
  2
DOT
 70
    64
  3

 72
    65
 73
     2
 40
0.00000001077978341
 49
0.0000000053898917
 74
     0
 49
-0.0000000053898917
 74
     0
  0
LTYPE
  5
6a
100
AcDbSymbolTableRecord
100
AcDbLinetypeTableRecord
  2
DASHDOT
 70
    64
  3

 72
    65
 73
     4
 40
0.0000000341359808
 49
0.00000001796630568
 74
     0
 49
-0.0000000053898917
 74
     0
 49
0.0000000053898917
 74
     0
 49
-0.0000000053898917
 74
     0
  0
LTYPE
  5
6b
100
AcDbSymbolTableRecord
100
AcDbLinetypeTableRecord
  2
DASHDOTDOT
 70
    64
  3

 72
    65
 73
     6
 40
0.00000004491576421
 49
0.00000001796630568
 74
     0
 49
-0.0000000053898917
 74
     0
 49
0.0000000053898917
 74
     0
 49
-0.0000000053898917
 74
     0
 49
0.0000000053898917
 74
     0
 49
-0.0000000053898917
 74
     0
  0
ENDTAB
  0
TABLE
  2
BLOCK_RECORD
  5
6c
100
AcDbSymbolTable
 70
     0
  0
BLOCK_RECORD
  5
6d
100
AcDbSymbolTableRecord
100
AcDbBlockTableRecord
  2
*Model_Space
  0
BLOCK_RECORD
  5
6e
100
AcDbSymbolTableRecord
100
AcDbBlockTableRecord
  2
*Paper_Space
  0
BLOCK_RECORD
  5
6f
100
AcDbSymbolTableRecord
100
AcDbBlockTableRecord
  2
*Paper_Space0
  0
ENDTAB
  0
TABLE
  2
APPID
  5
70
100
AcDbSymbolTable
 70
     1
  0
APPID
  5
71
100
AcDbSymbolTableRecord
100
AcDbRegAppTableRecord
  2
ACAD
 70
     0
  0
ENDTAB
  0
TABLE
  2
VIEW
  5
72
100
AcDbSymbolTable
 70
     0
  0
ENDTAB
  0
TABLE
  2
UCS
  5
73
100
AcDbSymbolTable
 70
     0
  0
ENDTAB
  0
TABLE
  2
VPORT
  5
74
100
AcDbSymbolTable
  0
VPORT
  5
75
100
AcDbSymbolTableRecord
100
AcDbViewportTableRecord
  2
*ACTIVE
 70
     0
 10
0.0
 20
0.0
 11
1.0
 21
1.0
 12
0.0
 22
0.0
 13
0.0
 23
0.0
 14
1.0
 24
1.0
 15
1.0
 25
1.0
 16
0.0
 26
0.0
 36
1.0
 17
-83.73768950000000189
 27
42.27331949999999949
 40
0.10130300000000148
 41
1.22173084706267221
 42
50.0
 43
0.0
 44
0.0
 50
0.0
 51
0.0
 71
     0
 72
   100
 73
     1
 74
     1
 75
     0
 76
     0
 77
     0
 78
     0
281
     0
 65
     1
110
0.0
120
0.0
130
0.0
111
1.0
121
0.0
131
0.0
112
0.0
122
1.0
132
0.0
 79
     0
146
0.0
 70
     0
  0
ENDTAB
  0
TABLE
  2
DIMSTYLE
  5
76
100
AcDbSymbolTable
100
AcDbDimStyleTable
 70
     0
  0
ENDTAB
  0
TABLE
  2
LAYER
  5
77
100
AcDbSymbolTable
 70
     2
  0
LAYER
  5
78
100
AcDbSymbolTableRecord
100
AcDbLayerTableRecord
  2
0
 70
    64
 62
     1
  6
CONTINUOUS
390
f
  0
LAYER
  5
79
100
AcDbSymbolTableRecord
100
AcDbLayerTableRecord
  2
404506537
 70
    64
 62
     1
  6
CONTINUOUS
390
f
  0
ENDTAB
  0
TABLE
  2
STYLE
  5
7a
100
AcDbSymbolTable
 70
     1
  0
STYLE
  5
7b
100
AcDbSymbolTableRecord
100
AcDbTextStyleTableRecord
  2
STANDARD
 70
    64
 40
0.0
 41
1.0
 50
0.0
 71
     0
 42
5.0
  3
romans.shx
  4

  0
ENDTAB
  0
ENDSEC
  0
SECTION
  2
BLOCKS
  0
BLOCK
  5
7c
330
6d
100
AcDbEntity
  8
0
100
AcDbBlockBegin
  2
*Model_Space
 70
     0
 10
0.0
 20
0.0
 30
0.0
  3
*Model_Space
  1

  0
ENDBLK
  5
7d
100
AcDbEntity
  8
0
100
AcDbBlockEnd
  0
BLOCK
  5
7e
330
6e
100
AcDbEntity
  8
0
100
AcDbBlockBegin
  2
*Paper_Space
 70
     0
 10
0.0
 20
0.0
 30
0.0
  3
*Paper_Space
  1

  0
ENDBLK
  5
7f
100
AcDbEntity
  8
0
100
AcDbBlockEnd
  0
BLOCK
  5
80
330
6f
100
AcDbEntity
  8
0
100
AcDbBlockBegin
  2
*Paper_Space0
 70
     0
 10
0.0
 20
0.0
 30
0.0
  3
*Paper_Space0
  1

  0
ENDBLK
  5
81
100
AcDbEntity
  8
0
100
AcDbBlockEnd
  0
ENDSEC
  0
SECTION
  2
ENTITIES
  0
LWPOLYLINE
  5
82
  8
404506537
100
AcDbEntity
100
AcDbPolyline
  6
CONTINUOUS
420
     0
 90
     6
 70
     1
 43
0.00000000233561974
 10
-83.79080999999999335
 20
42.27438099999999821
 10
-83.79077599999999393
 20
42.27324399999999827
 10
-83.79382900000000234
 20
42.27362200000000314
 10
-83.79384500000000457
 20
42.27438099999999821
 10
-83.79453200000000379
 20
42.27450300000000283
 10
-83.79456000000000415
 20
42.27548999999999779
  0
LWPOLYLINE
  5
83
  8
404506537
100
AcDbEntity
100
AcDbPolyline
  6
CONTINUOUS
420
     0
 90
   190
 70
     1
 43
0.00000000233561974
 10
-83.79831000000000074
 20
42.29046699999999959
 10
-83.7976330000000047
 20
42.29092299999999938
 10
-83.79585600000000056
 20
42.29059500000000327
 10
-83.79470499999999333
 20
42.29034300000000002
 10
-83.7947680000000048
 20
42.29119399999999729
 10
-83.79439800000000105
 20
42.29125599999999707
 10
-83.79381899999999916
 20
42.29355000000000331
 10
-83.79121399999999653
 20
42.29536999999999836
 10
-83.79141799999999307
 20
42.29963200000000256
 10
-83.78962900000000502
 20
42.29966900000000152
 10
-83.78705499999999518
 20
42.29823900000000236
 10
-83.78418600000000538
 20
42.29663999999999646
 10
-83.78267700000000673
 20
42.29631700000000194
 10
-83.78097300000000303
 20
42.29701299999999975
 10
-83.7809830000000062
 20
42.29936599999999913
 10
-83.774281000000002
 20
42.30067999999999984
 10
-83.773697999999996
 20
42.30082099999999912
 10
-83.77452900000000113
 20
42.30101599999999706
 10
-83.77554999999999552
 20
42.30120200000000352
 10
-83.78104999999999336
 20
42.30100900000000053
 10
-83.78130199999999661
 20
42.30724099999999765
 10
-83.78132300000000043
 20
42.3079400000000021
 10
-83.77384499999999434
 20
42.30815400000000182
 10
-83.77411299999999983
 20
42.31209499999999935
 10
-83.77191500000000701
 20
42.31219600000000014
 10
-83.77227999999999497
 20
42.31517500000000354
 10
-83.76621099999999842
 20
42.31529299999999694
 10
-83.76373999999999853
 20
42.31379600000000352
 10
-83.76315200000000516
 20
42.31338999999999828
 10
-83.76218400000000486
 20
42.31264800000000292
 10
-83.7618049999999954
 20
42.31235699999999866
 10
-83.76159099999999569
 20
42.30815599999999677
 10
-83.75789600000000235
 20
42.31064200000000142
 10
-83.76196899999999346
 20
42.3131789999999981
 10
-83.7636760000000038
 20
42.31543599999999827
 10
-83.77150299999999561
 20
42.31731500000000068
 10
-83.77156800000000203
 20
42.31802100000000166
 10
-83.77134300000000167
 20
42.31935399999999703
 10
-83.76218500000000233
 20
42.31856499999999954
 10
-83.76030199999999581
 20
42.31601100000000315
 10
-83.75413799999999753
 20
42.31483200000000267
 10
-83.75285399999999925
 20
42.31424599999999714
 10
-83.75223499999999888
 20
42.3100689999999986
 10
-83.75268800000000624
 20
42.30893400000000071
 10
-83.75118799999999908
 20
42.30805200000000355
 10
-83.75429400000000157
 20
42.30757700000000199
 10
-83.74784499999999809
 20
42.30313600000000207
 10
-83.74641499999999894
 20
42.30475599999999758
 10
-83.74498099999999567
 20
42.30358799999999775
 10
-83.74482399999999416
 20
42.30350500000000125
 10
-83.74447800000000086
 20
42.303449999999998
 10
-83.74434300000000064
 20
42.30344900000000052
 10
-83.74412700000000598
 20
42.30342300000000222
 10
-83.74210700000000429
 20
42.30636899999999656
 10
-83.74278700000000697
 20
42.30873600000000323
 10
-83.74116200000000276
 20
42.31291399999999925
 10
-83.73451599999999928
 20
42.31333399999999756
 10
-83.73411099999999863
 20
42.31618199999999774
 10
-83.7352989999999977
 20
42.31988799999999884
 10
-83.72987000000000535
 20
42.32103699999999691
 10
-83.72459600000000535
 20
42.32217899999999844
 10
-83.71260999999999797
 20
42.32397100000000023
 10
-83.7126130000000046
 20
42.32372600000000062
 10
-83.71217699999999695
 20
42.31129399999999663
 10
-83.70752500000000396
 20
42.31174099999999783
 10
-83.70752199999999732
 20
42.31277000000000044
 10
-83.70782599999999718
 20
42.32283300000000281
 10
-83.70260700000000043
 20
42.32279799999999881
 10
-83.70257499999999595
 20
42.32374300000000034
 10
-83.69806800000000635
 20
42.32354800000000239
 10
-83.69724499999999523
 20
42.32349399999999662
 10
-83.69638199999999983
 20
42.32335100000000239
 10
-83.69282400000000166
 20
42.32189400000000035
 10
-83.68952099999999916
 20
42.31776200000000188
 10
-83.68804699999999741
 20
42.31402700000000294
 10
-83.68767699999999365
 20
42.31404500000000013
 10
-83.68759099999999762
 20
42.31349800000000272
 10
-83.68731400000000065
 20
42.31170999999999793
 10
-83.68703499999999451
 20
42.30663799999999952
 10
-83.68693199999999877
 20
42.302897999999999
 10
-83.68736599999999726
 20
42.30289299999999741
 10
-83.68773799999999596
 20
42.30307899999999677
 10
-83.68792100000000289
 20
42.30286199999999752
 10
-83.6877539999999982
 20
42.30210199999999787
 10
-83.68748800000000188
 20
42.30191599999999852
 10
-83.68729899999999589
 20
42.30121100000000212
 10
-83.68705500000000086
 20
42.30101899999999659
 10
-83.68675199999999847
 20
42.29997699999999838
 10
-83.68659300000000201
 20
42.29994899999999802
 10
-83.68421299999999974
 20
42.29592300000000193
 10
-83.68171700000000612
 20
42.29375399999999985
 10
-83.67829299999999648
 20
42.29066900000000118
 10
-83.67694199999999682
 20
42.28850500000000068
 10
-83.67634599999999523
 20
42.2866289999999978
 10
-83.67605899999999508
 20
42.27887299999999726
 10
-83.67881400000000269
 20
42.27453200000000066
 10
-83.67594499999999869
 20
42.27442899999999781
 10
-83.67585400000000107
 20
42.27019099999999696
 10
-83.6758350000000064
 20
42.26961000000000013
 10
-83.67580700000000604
 20
42.26901900000000012
 10
-83.67810099999999807
 20
42.2685949999999977
 10
-83.67809099999999489
 20
42.26813700000000296
 10
-83.67891600000000096
 20
42.26850499999999755
 10
-83.68141900000000533
 20
42.2681350000000009
 10
-83.68204400000000476
 20
42.26691000000000287
 10
-83.68212900000000332
 20
42.26502599999999887
 10
-83.68028599999999528
 20
42.2648280000000014
 10
-83.6812230000000028
 20
42.26412299999999789
 10
-83.6804740000000038
 20
42.26265000000000072
 10
-83.68363999999999692
 20
42.25890799999999814
 10
-83.68597800000000575
 20
42.2549980000000005
 10
-83.68588300000000402
 20
42.25282700000000347
 10
-83.68359499999999684
 20
42.25289899999999932
 10
-83.68289000000000044
 20
42.2454970000000003
 10
-83.68339000000000283
 20
42.24548599999999965
 10
-83.68375799999999742
 20
42.24547900000000311
 10
-83.6841399999999993
 20
42.24114800000000258
 10
-83.68553699999999651
 20
42.23743499999999784
 10
-83.68573800000000062
 20
42.23640999999999934
 10
-83.68588200000000654
 20
42.23476999999999748
 10
-83.69299399999999878
 20
42.23018100000000175
 10
-83.69427399999999295
 20
42.23013799999999662
 10
-83.69494799999999657
 20
42.23020900000000211
 10
-83.69542099999999607
 20
42.23026300000000077
 10
-83.69590800000000286
 20
42.23031199999999785
 10
-83.69749000000000194
 20
42.23039800000000099
 10
-83.69973199999999736
 20
42.23034799999999933
 10
-83.69968000000000075
 20
42.22602899999999693
 10
-83.70606600000000697
 20
42.22276800000000208
 10
-83.71004700000000298
 20
42.22266799999999876
 10
-83.71006400000000269
 20
42.22511300000000034
 10
-83.71203599999999767
 20
42.22504200000000196
 10
-83.71222000000000207
 20
42.23001099999999752
 10
-83.71301400000000115
 20
42.22999200000000286
 10
-83.7134539999999987
 20
42.22996599999999745
 10
-83.71489599999999598
 20
42.22992599999999896
 10
-83.7164460000000048
 20
42.22988300000000095
 10
-83.71649899999999889
 20
42.23201699999999903
 10
-83.71738799999999969
 20
42.23201000000000249
 10
-83.71734499999999457
 20
42.23064800000000218
 10
-83.71824300000000108
 20
42.23062900000000042
 10
-83.71825099999999509
 20
42.22983099999999723
 10
-83.71955300000000477
 20
42.22979899999999986
 10
-83.7293899999999951
 20
42.22961200000000304
 10
-83.73899600000000021
 20
42.2294339999999977
 10
-83.73921599999999899
 20
42.23030399999999673
 10
-83.73913600000000201
 20
42.2363679999999988
 10
-83.74817199999999673
 20
42.23636900000000338
 10
-83.74819300000000055
 20
42.23702899999999971
 10
-83.75339200000000517
 20
42.23848699999999923
 10
-83.76062400000000707
 20
42.24354699999999951
 10
-83.76332299999999975
 20
42.24560000000000315
 10
-83.7647139999999979
 20
42.2444849999999974
 10
-83.76558199999999488
 20
42.2471090000000018
 10
-83.76555700000000115
 20
42.24728300000000303
 10
-83.77743100000000709
 20
42.2562640000000016
 10
-83.77893000000000256
 20
42.25740199999999902
 10
-83.78315499999999361
 20
42.26123900000000333
 10
-83.78425300000000675
 20
42.26336200000000076
 10
-83.78457699999999875
 20
42.26793399999999679
 10
-83.77986099999999681
 20
42.26800999999999675
 10
-83.77987299999999493
 20
42.26858299999999957
 10
-83.78455800000000409
 20
42.26847399999999766
 10
-83.78428599999999449
 20
42.27262199999999837
 10
-83.78994299999999384
 20
42.27313600000000093
 10
-83.79017000000000337
 20
42.27559000000000111
 10
-83.79456000000000415
 20
42.27548999999999779
 10
-83.79466399999999737
 20
42.27730999999999995
 10
-83.79615099999999472
 20
42.27727399999999847
 10
-83.79614899999999977
 20
42.27716900000000066
 10
-83.79630899999999372
 20
42.27389300000000105
 10
-83.79917399999999361
 20
42.27290599999999898
 10
-83.79927000000000703
 20
42.27668500000000051
 10
-83.79938699999999585
 20
42.28172500000000156
 10
-83.79900100000000407
 20
42.28173400000000015
 10
-83.79896700000000465
 20
42.28190200000000232
 10
-83.79882600000000537
 20
42.28190200000000232
 10
-83.79883900000000096
 20
42.28206399999999832
 10
-83.79940000000000566
 20
42.28206999999999738
 10
-83.79940299999999809
 20
42.28215399999999846
 10
-83.79903400000000602
 20
42.28215600000000052
 10
-83.79901800000000378
 20
42.28261499999999984
 10
-83.79941800000000285
 20
42.28261799999999937
 10
-83.79944500000000573
 20
42.28495699999999857
 10
-83.79759699999999611
 20
42.28503599999999807
 10
-83.79668300000000158
 20
42.28497699999999782
 10
-83.79667000000000598
 20
42.28525299999999731
 10
-83.79946099999999376
 20
42.28522099999999995
 10
-83.79949200000000076
 20
42.2872160000000008
 10
-83.79957199999999773
 20
42.28994800000000254
  0
LWPOLYLINE
  5
84
  8
404506537
100
AcDbEntity
100
AcDbPolyline
  6
CONTINUOUS
420
     0
 90
     4
 70
     1
 43
0.00000000233561974
 10
-83.7983250000000055
 20
42.28327300000000122
 10
-83.79766999999999655
 20
42.28327399999999869
 10
-83.79790199999999345
 20
42.28386299999999665
 10
-83.79834300000000269
 20
42.2838739999999973
  0
LWPOLYLINE
  5
85
  8
404506537
100
AcDbEntity
100
AcDbPolyline
  6
CONTINUOUS
420
     0
 90
    10
 70
     1
 43
0.00000000233561974
 10
-83.79500000000000171
 20
42.2862129999999965
 10
-83.79135700000000497
 20
42.28553300000000092
 10
-83.79114699999999516
 20
42.28556300000000334
 10
-83.79093199999999797
 20
42.28558499999999754
 10
-83.78957800000000589
 20
42.2853149999999971
 10
-83.78968199999999911
 20
42.28569900000000104
 10
-83.7921400000000034
 20
42.28627999999999787
 10
-83.79382300000000328
 20
42.28634100000000018
 10
-83.79367000000000587
 20
42.28610299999999711
 10
-83.79493399999999781
 20
42.28634100000000018
  0
LWPOLYLINE
  5
86
  8
404506537
100
AcDbEntity
100
AcDbPolyline
  6
CONTINUOUS
420
     0
 90
     4
 70
     1
 43
0.00000000233561974
 10
-83.79112000000000648
 20
42.2874920000000003
 10
-83.79054600000000619
 20
42.28750800000000254
 10
-83.79054399999999703
 20
42.28764199999999818
 10
-83.79099999999999682
 20
42.28790699999999703
  0
LWPOLYLINE
  5
87
  8
404506537
100
AcDbEntity
100
AcDbPolyline
  6
CONTINUOUS
420
     0
 90
     7
 70
     1
 43
0.00000000233561974
 10
-83.78290800000000615
 20
42.28627399999999881
 10
-83.78226399999999785
 20
42.28605300000000256
 10
-83.7819769999999977
 20
42.28648799999999852
 10
-83.78197000000000116
 20
42.28678399999999726
 10
-83.7825380000000024
 20
42.28677400000000119
 10
-83.78241699999999526
 20
42.28660899999999856
 10
-83.78253999999999735
 20
42.28638899999999978
  0
LWPOLYLINE
  5
88
  8
404506537
100
AcDbEntity
100
AcDbPolyline
  6
CONTINUOUS
420
     0
 90
     4
 70
     1
 43
0.00000000233561974
 10
-83.78012699999999313
 20
42.27543200000000212
 10
-83.78011499999999501
 20
42.27506699999999995
 10
-83.77908999999999651
 20
42.27507599999999854
 10
-83.77908100000000502
 20
42.27540299999999718
  0
LWPOLYLINE
  5
89
  8
404506537
100
AcDbEntity
100
AcDbPolyline
  6
CONTINUOUS
420
     0
 90
     4
 70
     1
 43
0.00000000233561974
 10
-83.77543799999999408
 20
42.27527800000000013
 10
-83.77471799999999291
 20
42.27525899999999837
 10
-83.77471799999999291
 20
42.27550000000000097
 10
-83.77544500000000482
 20
42.27551900000000273
  0
LWPOLYLINE
  5
8a
  8
404506537
100
AcDbEntity
100
AcDbPolyline
  6
CONTINUOUS
420
     0
 90
     6
 70
     1
 43
0.00000000233561974
 10
-83.77452999999999861
 20
42.28385999999999711
 10
-83.77354499999999859
 20
42.2836550000000031
 10
-83.77344300000000032
 20
42.28464699999999965
 10
-83.77374600000000271
 20
42.2844959999999972
 10
-83.77377400000000307
 20
42.28520000000000323
 10
-83.77423799999999687
 20
42.2852579999999989
  0
LWPOLYLINE
  5
8b
  8
404506537
100
AcDbEntity
100
AcDbPolyline
  6
CONTINUOUS
420
     0
 90
    15
 70
     1
 43
0.00000000233561974
 10
-83.77062399999999798
 20
42.31232700000000335
 10
-83.76894299999999305
 20
42.3088120000000032
 10
-83.76708499999999447
 20
42.3096570000000014
 10
-83.77017700000000389
 20
42.30769000000000091
 10
-83.76749399999999923
 20
42.30749600000000044
 10
-83.76793200000000184
 20
42.30548000000000286
 10
-83.76606499999999755
 20
42.30515599999999665
 10
-83.76614299999999957
 20
42.30802599999999813
 10
-83.76289099999999621
 20
42.3081239999999994
 10
-83.7643589999999989
 20
42.30880700000000161
 10
-83.76396499999999889
 20
42.31004599999999982
 10
-83.76628499999999633
 20
42.3103229999999968
 10
-83.76718300000000283
 20
42.312109999999997
 10
-83.76846999999999355
 20
42.31156899999999865
 10
-83.76941700000000424
 20
42.31285299999999694
  0
LWPOLYLINE
  5
8c
  8
404506537
100
AcDbEntity
100
AcDbPolyline
  6
CONTINUOUS
420
     0
 90
     6
 70
     1
 43
0.00000000233561974
 10
-83.76856700000000444
 20
42.29955499999999802
 10
-83.76856600000000697
 20
42.29929200000000122
 10
-83.76852999999999838
 20
42.29865199999999703
 10
-83.76588399999999979
 20
42.29876500000000306
 10
-83.76588900000000137
 20
42.29902599999999779
 10
-83.76643900000000542
 20
42.29908400000000057
  0
LWPOLYLINE
  5
8d
  8
404506537
100
AcDbEntity
100
AcDbPolyline
  6
CONTINUOUS
420
     0
 90
     4
 70
     1
 43
0.00000000233561974
 10
-83.76944199999999796
 20
42.25708000000000197
 10
-83.76943300000000647
 20
42.25646499999999861
 10
-83.76903799999999478
 20
42.25647599999999926
 10
-83.76905800000000113
 20
42.25708099999999945
  0
LWPOLYLINE
  5
8e
  8
404506537
100
AcDbEntity
100
AcDbPolyline
  6
CONTINUOUS
420
     0
 90
     5
 70
     1
 43
0.00000000233561974
 10
-83.75611000000000672
 20
42.29952000000000112
 10
-83.75478499999999826
 20
42.2998359999999991
 10
-83.75370599999999399
 20
42.29899900000000201
 10
-83.75374200000000258
 20
42.30086899999999872
 10
-83.75616999999999734
 20
42.30076199999999886
  0
LWPOLYLINE
  5
8f
  8
404506537
100
AcDbEntity
100
AcDbPolyline
  6
CONTINUOUS
420
     0
 90
     7
 70
     1
 43
0.00000000233561974
 10
-83.75568099999999561
 20
42.25517800000000079
 10
-83.75567200000000412
 20
42.25394299999999959
 10
-83.75405600000000561
 20
42.2539599999999993
 10
-83.75345000000000084
 20
42.25359399999999965
 10
-83.75301000000000329
 20
42.25395600000000229
 10
-83.75256199999999751
 20
42.25428200000000345
 10
-83.75443699999999581
 20
42.25512200000000007
  0
LWPOLYLINE
  5
90
  8
404506537
100
AcDbEntity
100
AcDbPolyline
  6
CONTINUOUS
420
     0
 90
     6
 70
     1
 43
0.00000000233561974
 10
-83.75404699999999991
 20
42.25690300000000121
 10
-83.75396999999999537
 20
42.25527100000000047
 10
-83.75197500000000161
 20
42.25466800000000234
 10
-83.75193400000000565
 20
42.25469400000000064
 10
-83.75133700000000658
 20
42.25502199999999675
 10
-83.7500789999999995
 20
42.25699500000000342
  0
LWPOLYLINE
  5
91
  8
404506537
100
AcDbEntity
100
AcDbPolyline
  6
CONTINUOUS
420
     0
 90
     6
 70
     1
 43
0.00000000233561974
 10
-83.74974000000000274
 20
42.29876999999999754
 10
-83.74636700000000644
 20
42.2985789999999966
 10
-83.74676399999999887
 20
42.29948000000000263
 10
-83.7466399999999993
 20
42.30111300000000085
 10
-83.74767900000000509
 20
42.29997999999999791
 10
-83.74883099999999558
 20
42.29917999999999978
  0
LWPOLYLINE
  5
92
  8
404506537
100
AcDbEntity
100
AcDbPolyline
  6
CONTINUOUS
420
     0
 90
     4
 70
     1
 43
0.00000000233561974
 10
-83.75213399999999808
 20
42.24450399999999917
 10
-83.75213599999999303
 20
42.24367000000000161
 10
-83.75166699999999764
 20
42.24366100000000301
 10
-83.75166500000000269
 20
42.24451599999999729
  0
LWPOLYLINE
  5
93
  8
404506537
100
AcDbEntity
100
AcDbPolyline
  6
CONTINUOUS
420
     0
 90
     6
 70
     1
 43
0.00000000233561974
 10
-83.74982599999999877
 20
42.2532149999999973
 10
-83.74972099999999386
 20
42.25247900000000101
 10
-83.74436500000000194
 20
42.25250499999999931
 10
-83.74430999999999869
 20
42.25417000000000201
 10
-83.74624300000000687
 20
42.25410699999999764
 10
-83.74644999999999584
 20
42.25331500000000062
  0
LWPOLYLINE
  5
94
  8
404506537
100
AcDbEntity
100
AcDbPolyline
  6
CONTINUOUS
420
     0
 90
     5
 70
     1
 43
0.00000000233561974
 10
-83.74036900000000117
 20
42.30224299999999715
 10
-83.74021899999999619
 20
42.3022500000000008
 10
-83.7399560000000065
 20
42.30222100000000296
 10
-83.7398809999999969
 20
42.30280799999999886
 10
-83.74029500000000326
 20
42.30289299999999741
  0
LWPOLYLINE
  5
95
  8
404506537
100
AcDbEntity
100
AcDbPolyline
  6
CONTINUOUS
420
     0
 90
    15
 70
     1
 43
0.00000000233561974
 10
-83.73578799999999944
 20
42.30940700000000021
 10
-83.73578799999999944
 20
42.30872099999999847
 10
-83.73560200000000009
 20
42.3085749999999976
 10
-83.73514199999999619
 20
42.3085749999999976
 10
-83.73512300000000153
 20
42.30874500000000182
 10
-83.73489399999999705
 20
42.30874299999999977
 10
-83.73255899999999485
 20
42.30900299999999703
 10
-83.72687100000000271
 20
42.30911900000000259
 10
-83.72696399999999528
 20
42.31414500000000345
 10
-83.72788799999999299
 20
42.3141340000000028
 10
-83.72943300000000022
 20
42.31642300000000034
 10
-83.73117200000000082
 20
42.31633399999999767
 10
-83.73202399999999557
 20
42.3112119999999976
 10
-83.73473699999999553
 20
42.31124700000000161
 10
-83.73485300000000109
 20
42.30939800000000162
  0
LWPOLYLINE
  5
96
  8
404506537
100
AcDbEntity
100
AcDbPolyline
  6
CONTINUOUS
420
     0
 90
     9
 70
     1
 43
0.00000000233561974
 10
-83.74047199999999691
 20
42.25850599999999702
 10
-83.74048200000000008
 20
42.2582530000000034
 10
-83.740232000000006
 20
42.25823199999999957
 10
-83.74018999999999835
 20
42.257911
 10
-83.74005699999999308
 20
42.25742300000000284
 10
-83.73872199999999566
 20
42.25764199999999704
 10
-83.73936500000000649
 20
42.25874499999999756
 10
-83.74029799999999568
 20
42.25874000000000308
 10
-83.74026999999999532
 20
42.25852400000000131
  0
LWPOLYLINE
  5
97
  8
404506537
100
AcDbEntity
100
AcDbPolyline
  6
CONTINUOUS
420
     0
 90
     8
 70
     1
 43
0.00000000233561974
 10
-83.73522099999999568
 20
42.30197900000000288
 10
-83.73421000000000447
 20
42.30201699999999931
 10
-83.73416600000000187
 20
42.30220400000000325
 10
-83.73172599999999477
 20
42.30226700000000051
 10
-83.73174799999999607
 20
42.30244900000000285
 10
-83.73294199999999421
 20
42.30254399999999748
 10
-83.73505199999999604
 20
42.30247700000000322
 10
-83.73508099999999388
 20
42.30234800000000206
  0
LWPOLYLINE
  5
98
  8
404506537
100
AcDbEntity
100
AcDbPolyline
  6
CONTINUOUS
420
     0
 90
     4
 70
     1
 43
0.00000000233561974
 10
-83.73970099999999661
 20
42.25558800000000303
 10
-83.73965099999999495
 20
42.25498900000000191
 10
-83.73736999999999853
 20
42.25505199999999917
 10
-83.73769599999999969
 20
42.25565199999999777
  0
LWPOLYLINE
  5
99
  8
404506537
100
AcDbEntity
100
AcDbPolyline
  6
CONTINUOUS
420
     0
 90
     6
 70
     1
 43
0.00000000233561974
 10
-83.72620200000000068
 20
42.31813499999999806
 10
-83.72472399999999482
 20
42.31693599999999833
 10
-83.72444000000000131
 20
42.31668599999999714
 10
-83.72378600000000404
 20
42.31612299999999749
 10
-83.72231100000000481
 20
42.31454399999999794
 10
-83.72216099999999983
 20
42.31836299999999795
  0
LWPOLYLINE
  5
9a
  8
404506537
100
AcDbEntity
100
AcDbPolyline
  6
CONTINUOUS
420
     0
 90
     9
 70
     1
 43
0.00000000233561974
 10
-83.72677799999999593
 20
42.29916899999999913
 10
-83.7265210000000053
 20
42.29899999999999949
 10
-83.7257979999999975
 20
42.29936000000000007
 10
-83.72526100000000326
 20
42.29946199999999834
 10
-83.72421599999999842
 20
42.29939099999999996
 10
-83.7242999999999995
 20
42.29963699999999704
 10
-83.72498899999999367
 20
42.30011900000000225
 10
-83.72558999999999685
 20
42.30026900000000012
 10
-83.72606299999999635
 20
42.29981500000000239
  0
LWPOLYLINE
  5
9b
  8
404506537
100
AcDbEntity
100
AcDbPolyline
  6
CONTINUOUS
420
     0
 90
     4
 70
     1
 43
0.00000000233561974
 10
-83.72585200000000327
 20
42.30123600000000295
 10
-83.72565600000000074
 20
42.30122399999999772
 10
-83.72560400000000413
 20
42.30173200000000122
 10
-83.72583400000000609
 20
42.30172799999999711
  0
LWPOLYLINE
  5
9c
  8
404506537
100
AcDbEntity
100
AcDbPolyline
  6
CONTINUOUS
420
     0
 90
     5
 70
     1
 43
0.00000000233561974
 10
-83.72537099999999555
 20
42.28710999999999842
 10
-83.72502400000000478
 20
42.2871239999999986
 10
-83.72471400000000585
 20
42.28756899999999774
 10
-83.72538699999999778
 20
42.2875489999999985
 10
-83.72540300000000002
 20
42.28748000000000218
  0
LWPOLYLINE
  5
9d
  8
404506537
100
AcDbEntity
100
AcDbPolyline
  6
CONTINUOUS
420
     0
 90
     7
 70
     1
 43
0.00000000233561974
 10
-83.72431500000000426
 20
42.29469900000000138
 10
-83.72240200000000243
 20
42.29471600000000109
 10
-83.72240499999999486
 20
42.29672899999999913
 10
-83.72263599999999428
 20
42.29707899999999654
 10
-83.72345199999999465
 20
42.29679699999999798
 10
-83.72358099999999581
 20
42.29536699999999882
 10
-83.72429900000000202
 20
42.29532600000000286
  0
LWPOLYLINE
  5
9e
  8
404506537
100
AcDbEntity
100
AcDbPolyline
  6
CONTINUOUS
420
     0
 90
     6
 70
     1
 43
0.00000000233561974
 10
-83.72147200000000566
 20
42.24718399999999718
 10
-83.72145999999999333
 20
42.24633599999999944
 10
-83.719853999999998
 20
42.24638699999999858
 10
-83.71982199999999352
 20
42.24404499999999985
 10
-83.71811499999999739
 20
42.24601700000000193
 10
-83.71987199999999518
 20
42.24714300000000122
  0
LWPOLYLINE
  5
9f
  8
404506537
100
AcDbEntity
100
AcDbPolyline
  6
CONTINUOUS
420
     0
 90
     4
 70
     1
 43
0.00000000233561974
 10
-83.71949200000000246
 20
42.23560200000000009
 10
-83.71772699999999645
 20
42.23560200000000009
 10
-83.71770899999999926
 20
42.23601200000000233
 10
-83.71946099999999547
 20
42.23601899999999887
  0
LWPOLYLINE
  5
a0
  8
404506537
100
AcDbEntity
100
AcDbPolyline
  6
CONTINUOUS
420
     0
 90
    27
 70
     1
 43
0.00000000233561974
 10
-83.71458800000000622
 20
42.27868699999999791
 10
-83.71259200000000078
 20
42.27793299999999732
 10
-83.71313100000000418
 20
42.27626300000000015
 10
-83.71414300000000708
 20
42.27796500000000179
 10
-83.71425100000000441
 20
42.27618400000000065
 10
-83.71182000000000301
 20
42.27584099999999978
 10
-83.71354800000000296
 20
42.27417899999999662
 10
-83.71013899999999808
 20
42.27290399999999693
 10
-83.70689500000000294
 20
42.27295999999999765
 10
-83.70607400000000098
 20
42.27297899999999942
 10
-83.70557100000000617
 20
42.27301200000000136
 10
-83.70550000000000068
 20
42.27258199999999988
 10
-83.70589499999999816
 20
42.27257600000000082
 10
-83.70584800000000314
 20
42.27195400000000092
 10
-83.7048730000000063
 20
42.27158299999999969
 10
-83.70386899999999741
 20
42.27246399999999937
 10
-83.70524899999999491
 20
42.27303400000000266
 10
-83.70541799999999455
 20
42.27302199999999743
 10
-83.70543399999999679
 20
42.27519699999999858
 10
-83.70495800000000486
 20
42.27541000000000082
 10
-83.7051400000000001
 20
42.27575999999999823
 10
-83.70452899999999374
 20
42.27603599999999773
 10
-83.70665400000000034
 20
42.27721400000000074
 10
-83.70604699999999809
 20
42.27511700000000161
 10
-83.70780700000000252
 20
42.27607100000000173
 10
-83.71225499999999897
 20
42.28115300000000332
 10
-83.71428799999999626
 20
42.27967699999999951
  0
LWPOLYLINE
  5
a1
  8
404506537
100
AcDbEntity
100
AcDbPolyline
  6
CONTINUOUS
420
     0
 90
     4
 70
     1
 43
0.00000000233561974
 10
-83.71259600000000489
 20
42.28983399999999904
 10
-83.71259499999999321
 20
42.28828899999999891
 10
-83.71173299999999529
 20
42.28831399999999974
 10
-83.71175700000000575
 20
42.28986100000000192
  0
LWPOLYLINE
  5
a2
  8
404506537
100
AcDbEntity
100
AcDbPolyline
  6
CONTINUOUS
420
     0
 90
     5
 70
     1
 43
0.00000000233561974
 10
-83.71577800000000025
 20
42.24513199999999813
 10
-83.71573999999999671
 20
42.24574799999999897
 10
-83.71628499999999917
 20
42.24591600000000113
 10
-83.71631100000000458
 20
42.24566099999999835
 10
-83.71647699999999759
 20
42.24553399999999925
  0
LWPOLYLINE
  5
a3
  8
404506537
100
AcDbEntity
100
AcDbPolyline
  6
CONTINUOUS
420
     0
 90
     7
 70
     1
 43
0.00000000233561974
 10
-83.71271500000000287
 20
42.27201000000000164
 10
-83.71266599999999869
 20
42.27060500000000332
 10
-83.7116269999999929
 20
42.27060800000000285
 10
-83.71188499999999522
 20
42.27201699999999818
 10
-83.71157300000000134
 20
42.2729140000000001
 10
-83.71222099999999955
 20
42.27299800000000118
 10
-83.71218500000000518
 20
42.27202700000000135
  0
LWPOLYLINE
  5
a4
  8
404506537
100
AcDbEntity
100
AcDbPolyline
  6
CONTINUOUS
420
     0
 90
     7
 70
     1
 43
0.00000000233561974
 10
-83.70503399999999772
 20
42.280110999999998
 10
-83.70341899999999669
 20
42.27909300000000314
 10
-83.70251299999999617
 20
42.27826799999999707
 10
-83.70158600000000604
 20
42.27765500000000287
 10
-83.70129000000000019
 20
42.27723300000000251
 10
-83.70044099999999787
 20
42.27786900000000259
 10
-83.70103199999999788
 20
42.27807500000000118
  0
LWPOLYLINE
  5
a5
  8
404506537
100
AcDbEntity
100
AcDbPolyline
  6
CONTINUOUS
420
     0
 90
    18
 70
     1
 43
0.00000000233561974
 10
-83.69872399999999857
 20
42.27732600000000218
 10
-83.69167000000000201
 20
42.27640399999999943
 10
-83.68778799999999762
 20
42.27207200000000142
 10
-83.6873159999999956
 20
42.27600400000000036
 10
-83.68984199999999873
 20
42.27658000000000271
 10
-83.69068699999999694
 20
42.27668299999999846
 10
-83.690692999999996
 20
42.27761699999999934
 10
-83.68956699999999671
 20
42.27761799999999681
 10
-83.68958399999999642
 20
42.27828499999999678
 10
-83.68856300000000203
 20
42.27805399999999736
 10
-83.68735800000000324
 20
42.27879500000000235
 10
-83.68811999999999784
 20
42.28044599999999775
 10
-83.68940000000000623
 20
42.27865500000000054
 10
-83.68981999999999744
 20
42.28279500000000013
 10
-83.69231499999999357
 20
42.28313500000000147
 10
-83.69229799999999386
 20
42.28048799999999829
 10
-83.69766199999999401
 20
42.28051700000000324
 10
-83.69873099999999511
 20
42.27758699999999692
  0
LWPOLYLINE
  5
a6
  8
404506537
100
AcDbEntity
100
AcDbPolyline
  6
CONTINUOUS
420
     0
 90
     4
 70
     1
 43
0.00000000233561974
 10
-83.70167800000000113
 20
42.23030500000000131
 10
-83.70069700000000523
 20
42.23032599999999803
 10
-83.70072399999999391
 20
42.23093699999999728
 10
-83.70164300000000424
 20
42.23092100000000215
  0
LWPOLYLINE
  5
a7
  8
404506537
100
AcDbEntity
100
AcDbPolyline
  6
CONTINUOUS
420
     0
 90
    13
 70
     1
 43
0.00000000233561974
 10
-83.69628600000000063
 20
42.2662029999999973
 10
-83.69503799999999671
 20
42.26541199999999776
 10
-83.68995200000000523
 20
42.26519100000000151
 10
-83.69127799999999695
 20
42.26416600000000301
 10
-83.69135400000000402
 20
42.26171999999999684
 10
-83.68958200000000147
 20
42.26397099999999796
 10
-83.68517900000000509
 20
42.26519400000000104
 10
-83.68943000000000154
 20
42.26775399999999649
 10
-83.69354199999999366
 20
42.26958400000000182
 10
-83.69409100000000024
 20
42.26882899999999665
 10
-83.69503899999999419
 20
42.26858800000000116
 10
-83.6960640000000069
 20
42.2688709999999972
 10
-83.69648499999999558
 20
42.26813400000000343
  0
HATCH
  5
a8
330
6d
100
AcDbEntity
  8
404506537
420
11098965
100
AcDbHatch
 10
0.0
 20
0.0
 30
0.0
210
0.0
220
0.0
230
1.0
  2
SOLID
 70
     1
 71
     0
 91
     1
 92
     2
 72
     0
 73
     1
 93
     7
 10
-83.79080999999999335
 20
42.27438099999999821
 10
-83.79077599999999393
 20
42.27324399999999827
 10
-83.79382900000000234
 20
42.27362200000000314
 10
-83.79384500000000457
 20
42.27438099999999821
 10
-83.79453200000000379
 20
42.27450300000000283
 10
-83.79456000000000415
 20
42.27548999999999779
 10
-83.79080999999999335
 20
42.27438099999999821
 97
     0
 75
     0
 76
     1
 98
     0
  0
HATCH
  5
a9
330
6d
100
AcDbEntity
  8
404506537
420
11098965
100
AcDbHatch
 10
0.0
 20
0.0
 30
0.0
210
0.0
220
0.0
230
1.0
  2
SOLID
 70
     1
 71
     0
 91
    37
 92
     2
 72
     0
 73
     1
 93
   191
 10
-83.79831000000000074
 20
42.29046699999999959
 10
-83.7976330000000047
 20
42.29092299999999938
 10
-83.79585600000000056
 20
42.29059500000000327
 10
-83.79470499999999333
 20
42.29034300000000002
 10
-83.7947680000000048
 20
42.29119399999999729
 10
-83.79439800000000105
 20
42.29125599999999707
 10
-83.79381899999999916
 20
42.29355000000000331
 10
-83.79121399999999653
 20
42.29536999999999836
 10
-83.79141799999999307
 20
42.29963200000000256
 10
-83.78962900000000502
 20
42.29966900000000152
 10
-83.78705499999999518
 20
42.29823900000000236
 10
-83.78418600000000538
 20
42.29663999999999646
 10
-83.78267700000000673
 20
42.29631700000000194
 10
-83.78097300000000303
 20
42.29701299999999975
 10
-83.7809830000000062
 20
42.29936599999999913
 10
-83.774281000000002
 20
42.30067999999999984
 10
-83.773697999999996
 20
42.30082099999999912
 10
-83.77452900000000113
 20
42.30101599999999706
 10
-83.77554999999999552
 20
42.30120200000000352
 10
-83.78104999999999336
 20
42.30100900000000053
 10
-83.78130199999999661
 20
42.30724099999999765
 10
-83.78132300000000043
 20
42.3079400000000021
 10
-83.77384499999999434
 20
42.30815400000000182
 10
-83.77411299999999983
 20
42.31209499999999935
 10
-83.77191500000000701
 20
42.31219600000000014
 10
-83.77227999999999497
 20
42.31517500000000354
 10
-83.76621099999999842
 20
42.31529299999999694
 10
-83.76373999999999853
 20
42.31379600000000352
 10
-83.76315200000000516
 20
42.31338999999999828
 10
-83.76218400000000486
 20
42.31264800000000292
 10
-83.7618049999999954
 20
42.31235699999999866
 10
-83.76159099999999569
 20
42.30815599999999677
 10
-83.75789600000000235
 20
42.31064200000000142
 10
-83.76196899999999346
 20
42.3131789999999981
 10
-83.7636760000000038
 20
42.31543599999999827
 10
-83.77150299999999561
 20
42.31731500000000068
 10
-83.77156800000000203
 20
42.31802100000000166
 10
-83.77134300000000167
 20
42.31935399999999703
 10
-83.76218500000000233
 20
42.31856499999999954
 10
-83.76030199999999581
 20
42.31601100000000315
 10
-83.75413799999999753
 20
42.31483200000000267
 10
-83.75285399999999925
 20
42.31424599999999714
 10
-83.75223499999999888
 20
42.3100689999999986
 10
-83.75268800000000624
 20
42.30893400000000071
 10
-83.75118799999999908
 20
42.30805200000000355
 10
-83.75429400000000157
 20
42.30757700000000199
 10
-83.74784499999999809
 20
42.30313600000000207
 10
-83.74641499999999894
 20
42.30475599999999758
 10
-83.74498099999999567
 20
42.30358799999999775
 10
-83.74482399999999416
 20
42.30350500000000125
 10
-83.74447800000000086
 20
42.303449999999998
 10
-83.74434300000000064
 20
42.30344900000000052
 10
-83.74412700000000598
 20
42.30342300000000222
 10
-83.74210700000000429
 20
42.30636899999999656
 10
-83.74278700000000697
 20
42.30873600000000323
 10
-83.74116200000000276
 20
42.31291399999999925
 10
-83.73451599999999928
 20
42.31333399999999756
 10
-83.73411099999999863
 20
42.31618199999999774
 10
-83.7352989999999977
 20
42.31988799999999884
 10
-83.72987000000000535
 20
42.32103699999999691
 10
-83.72459600000000535
 20
42.32217899999999844
 10
-83.71260999999999797
 20
42.32397100000000023
 10
-83.7126130000000046
 20
42.32372600000000062
 10
-83.71217699999999695
 20
42.31129399999999663
 10
-83.70752500000000396
 20
42.31174099999999783
 10
-83.70752199999999732
 20
42.31277000000000044
 10
-83.70782599999999718
 20
42.32283300000000281
 10
-83.70260700000000043
 20
42.32279799999999881
 10
-83.70257499999999595
 20
42.32374300000000034
 10
-83.69806800000000635
 20
42.32354800000000239
 10
-83.69724499999999523
 20
42.32349399999999662
 10
-83.69638199999999983
 20
42.32335100000000239
 10
-83.69282400000000166
 20
42.32189400000000035
 10
-83.68952099999999916
 20
42.31776200000000188
 10
-83.68804699999999741
 20
42.31402700000000294
 10
-83.68767699999999365
 20
42.31404500000000013
 10
-83.68759099999999762
 20
42.31349800000000272
 10
-83.68731400000000065
 20
42.31170999999999793
 10
-83.68703499999999451
 20
42.30663799999999952
 10
-83.68693199999999877
 20
42.302897999999999
 10
-83.68736599999999726
 20
42.30289299999999741
 10
-83.68773799999999596
 20
42.30307899999999677
 10
-83.68792100000000289
 20
42.30286199999999752
 10
-83.6877539999999982
 20
42.30210199999999787
 10
-83.68748800000000188
 20
42.30191599999999852
 10
-83.68729899999999589
 20
42.30121100000000212
 10
-83.68705500000000086
 20
42.30101899999999659
 10
-83.68675199999999847
 20
42.29997699999999838
 10
-83.68659300000000201
 20
42.29994899999999802
 10
-83.68421299999999974
 20
42.29592300000000193
 10
-83.68171700000000612
 20
42.29375399999999985
 10
-83.67829299999999648
 20
42.29066900000000118
 10
-83.67694199999999682
 20
42.28850500000000068
 10
-83.67634599999999523
 20
42.2866289999999978
 10
-83.67605899999999508
 20
42.27887299999999726
 10
-83.67881400000000269
 20
42.27453200000000066
 10
-83.67594499999999869
 20
42.27442899999999781
 10
-83.67585400000000107
 20
42.27019099999999696
 10
-83.6758350000000064
 20
42.26961000000000013
 10
-83.67580700000000604
 20
42.26901900000000012
 10
-83.67810099999999807
 20
42.2685949999999977
 10
-83.67809099999999489
 20
42.26813700000000296
 10
-83.67891600000000096
 20
42.26850499999999755
 10
-83.68141900000000533
 20
42.2681350000000009
 10
-83.68204400000000476
 20
42.26691000000000287
 10
-83.68212900000000332
 20
42.26502599999999887
 10
-83.68028599999999528
 20
42.2648280000000014
 10
-83.6812230000000028
 20
42.26412299999999789
 10
-83.6804740000000038
 20
42.26265000000000072
 10
-83.68363999999999692
 20
42.25890799999999814
 10
-83.68597800000000575
 20
42.2549980000000005
 10
-83.68588300000000402
 20
42.25282700000000347
 10
-83.68359499999999684
 20
42.25289899999999932
 10
-83.68289000000000044
 20
42.2454970000000003
 10
-83.68339000000000283
 20
42.24548599999999965
 10
-83.68375799999999742
 20
42.24547900000000311
 10
-83.6841399999999993
 20
42.24114800000000258
 10
-83.68553699999999651
 20
42.23743499999999784
 10
-83.68573800000000062
 20
42.23640999999999934
 10
-83.68588200000000654
 20
42.23476999999999748
 10
-83.69299399999999878
 20
42.23018100000000175
 10
-83.69427399999999295
 20
42.23013799999999662
 10
-83.69494799999999657
 20
42.23020900000000211
 10
-83.69542099999999607
 20
42.23026300000000077
 10
-83.69590800000000286
 20
42.23031199999999785
 10
-83.69749000000000194
 20
42.23039800000000099
 10
-83.69973199999999736
 20
42.23034799999999933
 10
-83.69968000000000075
 20
42.22602899999999693
 10
-83.70606600000000697
 20
42.22276800000000208
 10
-83.71004700000000298
 20
42.22266799999999876
 10
-83.71006400000000269
 20
42.22511300000000034
 10
-83.71203599999999767
 20
42.22504200000000196
 10
-83.71222000000000207
 20
42.23001099999999752
 10
-83.71301400000000115
 20
42.22999200000000286
 10
-83.7134539999999987
 20
42.22996599999999745
 10
-83.71489599999999598
 20
42.22992599999999896
 10
-83.7164460000000048
 20
42.22988300000000095
 10
-83.71649899999999889
 20
42.23201699999999903
 10
-83.71738799999999969
 20
42.23201000000000249
 10
-83.71734499999999457
 20
42.23064800000000218
 10
-83.71824300000000108
 20
42.23062900000000042
 10
-83.71825099999999509
 20
42.22983099999999723
 10
-83.71955300000000477
 20
42.22979899999999986
 10
-83.7293899999999951
 20
42.22961200000000304
 10
-83.73899600000000021
 20
42.2294339999999977
 10
-83.73921599999999899
 20
42.23030399999999673
 10
-83.73913600000000201
 20
42.2363679999999988
 10
-83.74817199999999673
 20
42.23636900000000338
 10
-83.74819300000000055
 20
42.23702899999999971
 10
-83.75339200000000517
 20
42.23848699999999923
 10
-83.76062400000000707
 20
42.24354699999999951
 10
-83.76332299999999975
 20
42.24560000000000315
 10
-83.7647139999999979
 20
42.2444849999999974
 10
-83.76558199999999488
 20
42.2471090000000018
 10
-83.76555700000000115
 20
42.24728300000000303
 10
-83.77743100000000709
 20
42.2562640000000016
 10
-83.77893000000000256
 20
42.25740199999999902
 10
-83.78315499999999361
 20
42.26123900000000333
 10
-83.78425300000000675
 20
42.26336200000000076
 10
-83.78457699999999875
 20
42.26793399999999679
 10
-83.77986099999999681
 20
42.26800999999999675
 10
-83.77987299999999493
 20
42.26858299999999957
 10
-83.78455800000000409
 20
42.26847399999999766
 10
-83.78428599999999449
 20
42.27262199999999837
 10
-83.78994299999999384
 20
42.27313600000000093
 10
-83.79017000000000337
 20
42.27559000000000111
 10
-83.79456000000000415
 20
42.27548999999999779
 10
-83.79466399999999737
 20
42.27730999999999995
 10
-83.79615099999999472
 20
42.27727399999999847
 10
-83.79614899999999977
 20
42.27716900000000066
 10
-83.79630899999999372
 20
42.27389300000000105
 10
-83.79917399999999361
 20
42.27290599999999898
 10
-83.79927000000000703
 20
42.27668500000000051
 10
-83.79938699999999585
 20
42.28172500000000156
 10
-83.79900100000000407
 20
42.28173400000000015
 10
-83.79896700000000465
 20
42.28190200000000232
 10
-83.79882600000000537
 20
42.28190200000000232
 10
-83.79883900000000096
 20
42.28206399999999832
 10
-83.79940000000000566
 20
42.28206999999999738
 10
-83.79940299999999809
 20
42.28215399999999846
 10
-83.79903400000000602
 20
42.28215600000000052
 10
-83.79901800000000378
 20
42.28261499999999984
 10
-83.79941800000000285
 20
42.28261799999999937
 10
-83.79944500000000573
 20
42.28495699999999857
 10
-83.79759699999999611
 20
42.28503599999999807
 10
-83.79668300000000158
 20
42.28497699999999782
 10
-83.79667000000000598
 20
42.28525299999999731
 10
-83.79946099999999376
 20
42.28522099999999995
 10
-83.79949200000000076
 20
42.2872160000000008
 10
-83.79957199999999773
 20
42.28994800000000254
 10
-83.79831000000000074
 20
42.29046699999999959
 97
     0
 92
     2
 72
     0
 73
     1
 93
     5
 10
-83.7983250000000055
 20
42.28327300000000122
 10
-83.79766999999999655
 20
42.28327399999999869
 10
-83.79790199999999345
 20
42.28386299999999665
 10
-83.79834300000000269
 20
42.2838739999999973
 10
-83.7983250000000055
 20
42.28327300000000122
 97
     0
 92
     2
 72
     0
 73
     1
 93
    11
 10
-83.79500000000000171
 20
42.2862129999999965
 10
-83.79135700000000497
 20
42.28553300000000092
 10
-83.79114699999999516
 20
42.28556300000000334
 10
-83.79093199999999797
 20
42.28558499999999754
 10
-83.78957800000000589
 20
42.2853149999999971
 10
-83.78968199999999911
 20
42.28569900000000104
 10
-83.7921400000000034
 20
42.28627999999999787
 10
-83.79382300000000328
 20
42.28634100000000018
 10
-83.79367000000000587
 20
42.28610299999999711
 10
-83.79493399999999781
 20
42.28634100000000018
 10
-83.79500000000000171
 20
42.2862129999999965
 97
     0
 92
     2
 72
     0
 73
     1
 93
     5
 10
-83.79112000000000648
 20
42.2874920000000003
 10
-83.79054600000000619
 20
42.28750800000000254
 10
-83.79054399999999703
 20
42.28764199999999818
 10
-83.79099999999999682
 20
42.28790699999999703
 10
-83.79112000000000648
 20
42.2874920000000003
 97
     0
 92
     2
 72
     0
 73
     1
 93
     8
 10
-83.78290800000000615
 20
42.28627399999999881
 10
-83.78226399999999785
 20
42.28605300000000256
 10
-83.7819769999999977
 20
42.28648799999999852
 10
-83.78197000000000116
 20
42.28678399999999726
 10
-83.7825380000000024
 20
42.28677400000000119
 10
-83.78241699999999526
 20
42.28660899999999856
 10
-83.78253999999999735
 20
42.28638899999999978
 10
-83.78290800000000615
 20
42.28627399999999881
 97
     0
 92
     2
 72
     0
 73
     1
 93
     5
 10
-83.78012699999999313
 20
42.27543200000000212
 10
-83.78011499999999501
 20
42.27506699999999995
 10
-83.77908999999999651
 20
42.27507599999999854
 10
-83.77908100000000502
 20
42.27540299999999718
 10
-83.78012699999999313
 20
42.27543200000000212
 97
     0
 92
     2
 72
     0
 73
     1
 93
     5
 10
-83.77543799999999408
 20
42.27527800000000013
 10
-83.77471799999999291
 20
42.27525899999999837
 10
-83.77471799999999291
 20
42.27550000000000097
 10
-83.77544500000000482
 20
42.27551900000000273
 10
-83.77543799999999408
 20
42.27527800000000013
 97
     0
 92
     2
 72
     0
 73
     1
 93
     7
 10
-83.77452999999999861
 20
42.28385999999999711
 10
-83.77354499999999859
 20
42.2836550000000031
 10
-83.77344300000000032
 20
42.28464699999999965
 10
-83.77374600000000271
 20
42.2844959999999972
 10
-83.77377400000000307
 20
42.28520000000000323
 10
-83.77423799999999687
 20
42.2852579999999989
 10
-83.77452999999999861
 20
42.28385999999999711
 97
     0
 92
     2
 72
     0
 73
     1
 93
    16
 10
-83.77062399999999798
 20
42.31232700000000335
 10
-83.76894299999999305
 20
42.3088120000000032
 10
-83.76708499999999447
 20
42.3096570000000014
 10
-83.77017700000000389
 20
42.30769000000000091
 10
-83.76749399999999923
 20
42.30749600000000044
 10
-83.76793200000000184
 20
42.30548000000000286
 10
-83.76606499999999755
 20
42.30515599999999665
 10
-83.76614299999999957
 20
42.30802599999999813
 10
-83.76289099999999621
 20
42.3081239999999994
 10
-83.7643589999999989
 20
42.30880700000000161
 10
-83.76396499999999889
 20
42.31004599999999982
 10
-83.76628499999999633
 20
42.3103229999999968
 10
-83.76718300000000283
 20
42.312109999999997
 10
-83.76846999999999355
 20
42.31156899999999865
 10
-83.76941700000000424
 20
42.31285299999999694
 10
-83.77062399999999798
 20
42.31232700000000335
 97
     0
 92
     2
 72
     0
 73
     1
 93
     7
 10
-83.76856700000000444
 20
42.29955499999999802
 10
-83.76856600000000697
 20
42.29929200000000122
 10
-83.76852999999999838
 20
42.29865199999999703
 10
-83.76588399999999979
 20
42.29876500000000306
 10
-83.76588900000000137
 20
42.29902599999999779
 10
-83.76643900000000542
 20
42.29908400000000057
 10
-83.76856700000000444
 20
42.29955499999999802
 97
     0
 92
     2
 72
     0
 73
     1
 93
     5
 10
-83.76944199999999796
 20
42.25708000000000197
 10
-83.76943300000000647
 20
42.25646499999999861
 10
-83.76903799999999478
 20
42.25647599999999926
 10
-83.76905800000000113
 20
42.25708099999999945
 10
-83.76944199999999796
 20
42.25708000000000197
 97
     0
 92
     2
 72
     0
 73
     1
 93
     6
 10
-83.75611000000000672
 20
42.29952000000000112
 10
-83.75478499999999826
 20
42.2998359999999991
 10
-83.75370599999999399
 20
42.29899900000000201
 10
-83.75374200000000258
 20
42.30086899999999872
 10
-83.75616999999999734
 20
42.30076199999999886
 10
-83.75611000000000672
 20
42.29952000000000112
 97
     0
 92
     2
 72
     0
 73
     1
 93
     8
 10
-83.75568099999999561
 20
42.25517800000000079
 10
-83.75567200000000412
 20
42.25394299999999959
 10
-83.75405600000000561
 20
42.2539599999999993
 10
-83.75345000000000084
 20
42.25359399999999965
 10
-83.75301000000000329
 20
42.25395600000000229
 10
-83.75256199999999751
 20
42.25428200000000345
 10
-83.75443699999999581
 20
42.25512200000000007
 10
-83.75568099999999561
 20
42.25517800000000079
 97
     0
 92
     2
 72
     0
 73
     1
 93
     7
 10
-83.75404699999999991
 20
42.25690300000000121
 10
-83.75396999999999537
 20
42.25527100000000047
 10
-83.75197500000000161
 20
42.25466800000000234
 10
-83.75193400000000565
 20
42.25469400000000064
 10
-83.75133700000000658
 20
42.25502199999999675
 10
-83.7500789999999995
 20
42.25699500000000342
 10
-83.75404699999999991
 20
42.25690300000000121
 97
     0
 92
     2
 72
     0
 73
     1
 93
     7
 10
-83.74974000000000274
 20
42.29876999999999754
 10
-83.74636700000000644
 20
42.2985789999999966
 10
-83.74676399999999887
 20
42.29948000000000263
 10
-83.7466399999999993
 20
42.30111300000000085
 10
-83.74767900000000509
 20
42.29997999999999791
 10
-83.74883099999999558
 20
42.29917999999999978
 10
-83.74974000000000274
 20
42.29876999999999754
 97
     0
 92
     2
 72
     0
 73
     1
 93
     5
 10
-83.75213399999999808
 20
42.24450399999999917
 10
-83.75213599999999303
 20
42.24367000000000161
 10
-83.75166699999999764
 20
42.24366100000000301
 10
-83.75166500000000269
 20
42.24451599999999729
 10
-83.75213399999999808
 20
42.24450399999999917
 97
     0
 92
     2
 72
     0
 73
     1
 93
     7
 10
-83.74982599999999877
 20
42.2532149999999973
 10
-83.74972099999999386
 20
42.25247900000000101
 10
-83.74436500000000194
 20
42.25250499999999931
 10
-83.74430999999999869
 20
42.25417000000000201
 10
-83.74624300000000687
 20
42.25410699999999764
 10
-83.74644999999999584
 20
42.25331500000000062
 10
-83.74982599999999877
 20
42.2532149999999973
 97
     0
 92
     2
 72
     0
 73
     1
 93
     6
 10
-83.74036900000000117
 20
42.30224299999999715
 10
-83.74021899999999619
 20
42.3022500000000008
 10
-83.7399560000000065
 20
42.30222100000000296
 10
-83.7398809999999969
 20
42.30280799999999886
 10
-83.74029500000000326
 20
42.30289299999999741
 10
-83.74036900000000117
 20
42.30224299999999715
 97
     0
 92
     2
 72
     0
 73
     1
 93
    16
 10
-83.73578799999999944
 20
42.30940700000000021
 10
-83.73578799999999944
 20
42.30872099999999847
 10
-83.73560200000000009
 20
42.3085749999999976
 10
-83.73514199999999619
 20
42.3085749999999976
 10
-83.73512300000000153
 20
42.30874500000000182
 10
-83.73489399999999705
 20
42.30874299999999977
 10
-83.73255899999999485
 20
42.30900299999999703
 10
-83.72687100000000271
 20
42.30911900000000259
 10
-83.72696399999999528
 20
42.31414500000000345
 10
-83.72788799999999299
 20
42.3141340000000028
 10
-83.72943300000000022
 20
42.31642300000000034
 10
-83.73117200000000082
 20
42.31633399999999767
 10
-83.73202399999999557
 20
42.3112119999999976
 10
-83.73473699999999553
 20
42.31124700000000161
 10
-83.73485300000000109
 20
42.30939800000000162
 10
-83.73578799999999944
 20
42.30940700000000021
 97
     0
 92
     2
 72
     0
 73
     1
 93
    10
 10
-83.74047199999999691
 20
42.25850599999999702
 10
-83.74048200000000008
 20
42.2582530000000034
 10
-83.740232000000006
 20
42.25823199999999957
 10
-83.74018999999999835
 20
42.257911
 10
-83.74005699999999308
 20
42.25742300000000284
 10
-83.73872199999999566
 20
42.25764199999999704
 10
-83.73936500000000649
 20
42.25874499999999756
 10
-83.74029799999999568
 20
42.25874000000000308
 10
-83.74026999999999532
 20
42.25852400000000131
 10
-83.74047199999999691
 20
42.25850599999999702
 97
     0
 92
     2
 72
     0
 73
     1
 93
     9
 10
-83.73522099999999568
 20
42.30197900000000288
 10
-83.73421000000000447
 20
42.30201699999999931
 10
-83.73416600000000187
 20
42.30220400000000325
 10
-83.73172599999999477
 20
42.30226700000000051
 10
-83.73174799999999607
 20
42.30244900000000285
 10
-83.73294199999999421
 20
42.30254399999999748
 10
-83.73505199999999604
 20
42.30247700000000322
 10
-83.73508099999999388
 20
42.30234800000000206
 10
-83.73522099999999568
 20
42.30197900000000288
 97
     0
 92
     2
 72
     0
 73
     1
 93
     5
 10
-83.73970099999999661
 20
42.25558800000000303
 10
-83.73965099999999495
 20
42.25498900000000191
 10
-83.73736999999999853
 20
42.25505199999999917
 10
-83.73769599999999969
 20
42.25565199999999777
 10
-83.73970099999999661
 20
42.25558800000000303
 97
     0
 92
     2
 72
     0
 73
     1
 93
     7
 10
-83.72620200000000068
 20
42.31813499999999806
 10
-83.72472399999999482
 20
42.31693599999999833
 10
-83.72444000000000131
 20
42.31668599999999714
 10
-83.72378600000000404
 20
42.31612299999999749
 10
-83.72231100000000481
 20
42.31454399999999794
 10
-83.72216099999999983
 20
42.31836299999999795
 10
-83.72620200000000068
 20
42.31813499999999806
 97
     0
 92
     2
 72
     0
 73
     1
 93
    10
 10
-83.72677799999999593
 20
42.29916899999999913
 10
-83.7265210000000053
 20
42.29899999999999949
 10
-83.7257979999999975
 20
42.29936000000000007
 10
-83.72526100000000326
 20
42.29946199999999834
 10
-83.72421599999999842
 20
42.29939099999999996
 10
-83.7242999999999995
 20
42.29963699999999704
 10
-83.72498899999999367
 20
42.30011900000000225
 10
-83.72558999999999685
 20
42.30026900000000012
 10
-83.72606299999999635
 20
42.29981500000000239
 10
-83.72677799999999593
 20
42.29916899999999913
 97
     0
 92
     2
 72
     0
 73
     1
 93
     5
 10
-83.72585200000000327
 20
42.30123600000000295
 10
-83.72565600000000074
 20
42.30122399999999772
 10
-83.72560400000000413
 20
42.30173200000000122
 10
-83.72583400000000609
 20
42.30172799999999711
 10
-83.72585200000000327
 20
42.30123600000000295
 97
     0
 92
     2
 72
     0
 73
     1
 93
     6
 10
-83.72537099999999555
 20
42.28710999999999842
 10
-83.72502400000000478
 20
42.2871239999999986
 10
-83.72471400000000585
 20
42.28756899999999774
 10
-83.72538699999999778
 20
42.2875489999999985
 10
-83.72540300000000002
 20
42.28748000000000218
 10
-83.72537099999999555
 20
42.28710999999999842
 97
     0
 92
     2
 72
     0
 73
     1
 93
     8
 10
-83.72431500000000426
 20
42.29469900000000138
 10
-83.72240200000000243
 20
42.29471600000000109
 10
-83.72240499999999486
 20
42.29672899999999913
 10
-83.72263599999999428
 20
42.29707899999999654
 10
-83.72345199999999465
 20
42.29679699999999798
 10
-83.72358099999999581
 20
42.29536699999999882
 10
-83.72429900000000202
 20
42.29532600000000286
 10
-83.72431500000000426
 20
42.29469900000000138
 97
     0
 92
     2
 72
     0
 73
     1
 93
     7
 10
-83.72147200000000566
 20
42.24718399999999718
 10
-83.72145999999999333
 20
42.24633599999999944
 10
-83.719853999999998
 20
42.24638699999999858
 10
-83.71982199999999352
 20
42.24404499999999985
 10
-83.71811499999999739
 20
42.24601700000000193
 10
-83.71987199999999518
 20
42.24714300000000122
 10
-83.72147200000000566
 20
42.24718399999999718
 97
     0
 92
     2
 72
     0
 73
     1
 93
     5
 10
-83.71949200000000246
 20
42.23560200000000009
 10
-83.71772699999999645
 20
42.23560200000000009
 10
-83.71770899999999926
 20
42.23601200000000233
 10
-83.71946099999999547
 20
42.23601899999999887
 10
-83.71949200000000246
 20
42.23560200000000009
 97
     0
 92
     2
 72
     0
 73
     1
 93
    28
 10
-83.71458800000000622
 20
42.27868699999999791
 10
-83.71259200000000078
 20
42.27793299999999732
 10
-83.71313100000000418
 20
42.27626300000000015
 10
-83.71414300000000708
 20
42.27796500000000179
 10
-83.71425100000000441
 20
42.27618400000000065
 10
-83.71182000000000301
 20
42.27584099999999978
 10
-83.71354800000000296
 20
42.27417899999999662
 10
-83.71013899999999808
 20
42.27290399999999693
 10
-83.70689500000000294
 20
42.27295999999999765
 10
-83.70607400000000098
 20
42.27297899999999942
 10
-83.70557100000000617
 20
42.27301200000000136
 10
-83.70550000000000068
 20
42.27258199999999988
 10
-83.70589499999999816
 20
42.27257600000000082
 10
-83.70584800000000314
 20
42.27195400000000092
 10
-83.7048730000000063
 20
42.27158299999999969
 10
-83.70386899999999741
 20
42.27246399999999937
 10
-83.70524899999999491
 20
42.27303400000000266
 10
-83.70541799999999455
 20
42.27302199999999743
 10
-83.70543399999999679
 20
42.27519699999999858
 10
-83.70495800000000486
 20
42.27541000000000082
 10
-83.7051400000000001
 20
42.27575999999999823
 10
-83.70452899999999374
 20
42.27603599999999773
 10
-83.70665400000000034
 20
42.27721400000000074
 10
-83.70604699999999809
 20
42.27511700000000161
 10
-83.70780700000000252
 20
42.27607100000000173
 10
-83.71225499999999897
 20
42.28115300000000332
 10
-83.71428799999999626
 20
42.27967699999999951
 10
-83.71458800000000622
 20
42.27868699999999791
 97
     0
 92
     2
 72
     0
 73
     1
 93
     5
 10
-83.71259600000000489
 20
42.28983399999999904
 10
-83.71259499999999321
 20
42.28828899999999891
 10
-83.71173299999999529
 20
42.28831399999999974
 10
-83.71175700000000575
 20
42.28986100000000192
 10
-83.71259600000000489
 20
42.28983399999999904
 97
     0
 92
     2
 72
     0
 73
     1
 93
     6
 10
-83.71577800000000025
 20
42.24513199999999813
 10
-83.71573999999999671
 20
42.24574799999999897
 10
-83.71628499999999917
 20
42.24591600000000113
 10
-83.71631100000000458
 20
42.24566099999999835
 10
-83.71647699999999759
 20
42.24553399999999925
 10
-83.71577800000000025
 20
42.24513199999999813
 97
     0
 92
     2
 72
     0
 73
     1
 93
     8
 10
-83.71271500000000287
 20
42.27201000000000164
 10
-83.71266599999999869
 20
42.27060500000000332
 10
-83.7116269999999929
 20
42.27060800000000285
 10
-83.71188499999999522
 20
42.27201699999999818
 10
-83.71157300000000134
 20
42.2729140000000001
 10
-83.71222099999999955
 20
42.27299800000000118
 10
-83.71218500000000518
 20
42.27202700000000135
 10
-83.71271500000000287
 20
42.27201000000000164
 97
     0
 92
     2
 72
     0
 73
     1
 93
     8
 10
-83.70503399999999772
 20
42.280110999999998
 10
-83.70341899999999669
 20
42.27909300000000314
 10
-83.70251299999999617
 20
42.27826799999999707
 10
-83.70158600000000604
 20
42.27765500000000287
 10
-83.70129000000000019
 20
42.27723300000000251
 10
-83.70044099999999787
 20
42.27786900000000259
 10
-83.70103199999999788
 20
42.27807500000000118
 10
-83.70503399999999772
 20
42.280110999999998
 97
     0
 92
     2
 72
     0
 73
     1
 93
    19
 10
-83.69872399999999857
 20
42.27732600000000218
 10
-83.69167000000000201
 20
42.27640399999999943
 10
-83.68778799999999762
 20
42.27207200000000142
 10
-83.6873159999999956
 20
42.27600400000000036
 10
-83.68984199999999873
 20
42.27658000000000271
 10
-83.69068699999999694
 20
42.27668299999999846
 10
-83.690692999999996
 20
42.27761699999999934
 10
-83.68956699999999671
 20
42.27761799999999681
 10
-83.68958399999999642
 20
42.27828499999999678
 10
-83.68856300000000203
 20
42.27805399999999736
 10
-83.68735800000000324
 20
42.27879500000000235
 10
-83.68811999999999784
 20
42.28044599999999775
 10
-83.68940000000000623
 20
42.27865500000000054
 10
-83.68981999999999744
 20
42.28279500000000013
 10
-83.69231499999999357
 20
42.28313500000000147
 10
-83.69229799999999386
 20
42.28048799999999829
 10
-83.69766199999999401
 20
42.28051700000000324
 10
-83.69873099999999511
 20
42.27758699999999692
 10
-83.69872399999999857
 20
42.27732600000000218
 97
     0
 92
     2
 72
     0
 73
     1
 93
     5
 10
-83.70167800000000113
 20
42.23030500000000131
 10
-83.70069700000000523
 20
42.23032599999999803
 10
-83.70072399999999391
 20
42.23093699999999728
 10
-83.70164300000000424
 20
42.23092100000000215
 10
-83.70167800000000113
 20
42.23030500000000131
 97
     0
 92
     2
 72
     0
 73
     1
 93
    14
 10
-83.69628600000000063
 20
42.2662029999999973
 10
-83.69503799999999671
 20
42.26541199999999776
 10
-83.68995200000000523
 20
42.26519100000000151
 10
-83.69127799999999695
 20
42.26416600000000301
 10
-83.69135400000000402
 20
42.26171999999999684
 10
-83.68958200000000147
 20
42.26397099999999796
 10
-83.68517900000000509
 20
42.26519400000000104
 10
-83.68943000000000154
 20
42.26775399999999649
 10
-83.69354199999999366
 20
42.26958400000000182
 10
-83.69409100000000024
 20
42.26882899999999665
 10
-83.69503899999999419
 20
42.26858800000000116
 10
-83.6960640000000069
 20
42.2688709999999972
 10
-83.69648499999999558
 20
42.26813400000000343
 10
-83.69628600000000063
 20
42.2662029999999973
 97
     0
 75
     0
 76
     1
 98
     0
  0
ENDSEC
  0
SECTION
  2
OBJECTS
  0
DICTIONARY
  5
C
330
0
100
AcDbDictionary
281
     1
  3
ACAD_GROUP
350
D
  3
ACAD_LAYOUT
350
1A
  3
ACAD_MLEADERSTYLE
350
43
  3
ACAD_MLINESTYLE
350
17
  3
ACAD_PLOTSETTINGS
350
19
  3
ACAD_PLOTSTYLENAME
350
E
  3
ACAD_TABLESTYLE
350
42
  3
ACAD_VISUALSTYLE
350
2A
  0
DICTIONARY
  5
D
102
{ACAD_REACTORS
330
C
102
}
330
C
100
AcDbDictionary
281
     1
  0
DICTIONARY
  5
1A
102
{ACAD_REACTORS
330
C
102
}
330
C
100
AcDbDictionary
281
     1
  3
Layout1
350
1E
  3
Layout2
350
26
  3
Model
350
22
  0
DICTIONARY
  5
43
102
{ACAD_REACTORS
330
C
102
}
330
C
100
AcDbDictionary
281
     1
  0
DICTIONARY
  5
17
102
{ACAD_REACTORS
330
C
102
}
330
C
100
AcDbDictionary
281
     1
  3
Standard
350
18
  0
DICTIONARY
  5
19
102
{ACAD_REACTORS
330
C
102
}
330
C
100
AcDbDictionary
281
     1
  0
ACDBDICTIONARYWDFLT
  5
E
102
{ACAD_REACTORS
330
C
102
}
330
C
100
AcDbDictionary
281
     1
  3
Normal
350
F
100
AcDbDictionaryWithDefault
340
F
  0
DICTIONARY
  5
42
102
{ACAD_REACTORS
330
C
102
}
330
C
100
AcDbDictionary
281
     1
  0
DICTIONARY
  5
2A
102
{ACAD_REACTORS
330
C
102
}
330
C
100
AcDbDictionary
281
     1
  3
2dWireframe
350
2F
  3
3D Hidden
350
31
  3
3dWireframe
350
30
  3
Basic
350
32
  3
Brighten
350
36
  3
ColorChange
350
3A
  3
Conceptual
350
34
  3
Dim
350
35
  3
Facepattern
350
39
  3
Flat
350
2B
  3
FlatWithEdges
350
2C
  3
Gouraud
350
2D
  3
GouraudWithEdges
350
2E
  3
Linepattern
350
38
  3
Realistic
350
33
  3
Thicken
350
37
  0
LAYOUT
  5
1E
102
{ACAD_REACTORS
330
1A
102
}
330
1A
100
AcDbPlotSettings
  1

  2
none_device
  4

  6

 40
0.0
 41
0.0
 42
0.0
 43
0.0
 44
0.0
 45
0.0
 46
0.0
 47
0.0
 48
0.0
 49
0.0
140
0.0
141
0.0
142
1.0
143
1.0
 70
   688
 72
     0
 73
     0
 74
     5
  7

 75
    16
 76
     0
 77
     2
 78
   300
147
1.0
148
0.0
149
0.0
100
AcDbLayout
  1
Layout1
 70
     1
 71
     1
 10
0.0
 20
0.0
 11
12.0
 21
9.0
 12
0.0
 22
0.0
 32
0.0
 14
1.000000000000000E+20
 24
1.000000000000000E+20
 34
1.000000000000000E+20
 15
-1.000000000000000E+20
 25
-1.000000000000000E+20
 35
-1.000000000000000E+20
146
0.0
 13
0.0
 23
0.0
 33
0.0
 16
1.0
 26
0.0
 36
0.0
 17
0.0
 27
1.0
 37
0.0
 76
     0
330
1B
  0
LAYOUT
  5
26
102
{ACAD_REACTORS
330
1A
102
}
330
1A
100
AcDbPlotSettings
  1

  2
none_device
  4

  6

 40
0.0
 41
0.0
 42
0.0
 43
0.0
 44
0.0
 45
0.0
 46
0.0
 47
0.0
 48
0.0
 49
0.0
140
0.0
141
0.0
142
1.0
143
1.0
 70
   688
 72
     0
 73
     0
 74
     5
  7

 75
    16
 76
     0
 77
     2
 78
   300
147
1.0
148
0.0
149
0.0
100
AcDbLayout
  1
Layout2
 70
     1
 71
     2
 10
0.0
 20
0.0
 11
0.0
 21
0.0
 12
0.0
 22
0.0
 32
0.0
 14
0.0
 24
0.0
 34
0.0
 15
0.0
 25
0.0
 35
0.0
146
0.0
 13
0.0
 23
0.0
 33
0.0
 16
1.0
 26
0.0
 36
0.0
 17
0.0
 27
1.0
 37
0.0
 76
     0
330
23
  0
LAYOUT
  5
22
102
{ACAD_REACTORS
330
1A
102
}
330
1A
100
AcDbPlotSettings
  1

  2
none_device
  4

  6

 40
0.0
 41
0.0
 42
0.0
 43
0.0
 44
0.0
 45
0.0
 46
0.0
 47
0.0
 48
0.0
 49
0.0
140
0.0
141
0.0
142
1.0
143
1.0
 70
  1712
 72
     0
 73
     0
 74
     0
  7

 75
     0
 76
     0
 77
     2
 78
   300
147
1.0
148
0.0
149
0.0
100
AcDbLayout
  1
Model
 70
     1
 71
     0
 10
0.0
 20
0.0
 11
12.0
 21
9.0
 12
0.0
 22
0.0
 32
0.0
 14
30.0
 24
49.75
 34
0.0
 15
130.5
 25
163.1318914119703
 35
0.0
146
0.0
 13
0.0
 23
0.0
 33
0.0
 16
1.0
 26
0.0
 36
0.0
 17
0.0
 27
1.0
 37
0.0
 76
     0
330
1F
331
29
  0
MLINESTYLE
  5
18
102
{ACAD_REACTORS
330
17
102
}
330
17
100
AcDbMlineStyle
  2
Standard
 70
     0
  3

 62
   256
 51
90.0
 52
90.0
 71
     2
 49
0.5
 62
   256
  6
BYLAYER
 49
-0.5
 62
   256
  6
BYLAYER
  0
ACDBPLACEHOLDER
  5
F
102
{ACAD_REACTORS
330
E
102
}
330
E
  0
VISUALSTYLE
  5
2F
102
{ACAD_REACTORS
330
2A
102
}
330
2A
100
AcDbVisualStyle
  2
2dWireframe
 70
     4
 71
     0
 72
     2
 73
     0
 90
        0
 40
-0.6
 41
-30.0
 62
     5
 63
     7
421
 16777215
 74
     1
 91
        4
 64
     7
 65
   257
 75
     1
175
     1
 42
1.0
 92
        0
 66
   257
 43
1.0
 76
     1
 77
     6
 78
     2
 67
     7
 79
     5
170
     0
171
     0
290
     0
174
     0
 93
        1
 44
0.0
173
     0
291
     0
 45
0.0
1001
ACAD
1000
AcDbSavedByObjectVersion
1070
     0
  0
VISUALSTYLE
  5
31
102
{ACAD_REACTORS
330
2A
102
}
330
2A
100
AcDbVisualStyle
  2
3D Hidden
 70
     6
 71
     1
 72
     2
 73
     2
 90
        0
 40
-0.6
 41
-30.0
 62
     5
 63
     7
421
 16777215
 74
     2
 91
        2
 64
     7
 65
   257
 75
     2
175
     1
 42
40.0
 92
        0
 66
   257
 43
1.0
 76
     1
 77
     6
 78
     2
 67
     7
 79
     3
170
     0
171
     0
290
     0
174
     0
 93
        1
 44
0.0
173
     0
291
     0
 45
0.0
1001
ACAD
1000
AcDbSavedByObjectVersion
1070
     0
  0
VISUALSTYLE
  5
30
102
{ACAD_REACTORS
330
2A
102
}
330
2A
100
AcDbVisualStyle
  2
3dWireframe
 70
     5
 71
     0
 72
     2
 73
     0
 90
        0
 40
-0.6
 41
-30.0
 62
     5
 63
     7
421
 16777215
 74
     1
 91
        4
 64
     7
 65
   257
 75
     1
175
     1
 42
1.0
 92
        0
 66
   257
 43
1.0
 76
     1
 77
     6
 78
     2
 67
     7
 79
     5
170
     0
171
     0
290
     0
174
     0
 93
        1
 44
0.0
173
     0
291
     0
 45
0.0
1001
ACAD
1000
AcDbSavedByObjectVersion
1070
     0
  0
VISUALSTYLE
  5
32
102
{ACAD_REACTORS
330
2A
102
}
330
2A
100
AcDbVisualStyle
  2
Basic
 70
     7
 71
     1
 72
     0
 73
     1
 90
        0
 40
-0.6
 41
-30.0
 62
     5
 63
     7
421
 16777215
 74
     0
 91
        4
 64
     7
 65
   257
 75
     1
175
     1
 42
1.0
 92
        8
 66
     7
 43
1.0
 76
     1
 77
     6
 78
     2
 67
     7
 79
     5
170
     0
171
     0
290
     0
174
     0
 93
        1
 44
0.0
173
     0
291
     1
 45
0.0
1001
ACAD
1000
AcDbSavedByObjectVersion
1070
     0
  0
VISUALSTYLE
  5
36
102
{ACAD_REACTORS
330
2A
102
}
330
2A
100
AcDbVisualStyle
  2
Brighten
 70
    12
 71
     2
 72
     2
 73
     0
 90
        0
 40
-0.6
 41
-30.0
 62
     5
 63
     7
421
 16777215
 74
     1
 91
        4
 64
     7
 65
   257
 75
     1
175
     1
 42
1.0
 92
        8
 66
     7
 43
1.0
 76
     1
 77
     6
 78
     2
 67
     7
 79
     5
170
     0
171
     0
290
     0
174
     0
 93
        1
 44
50.0
173
     0
291
     1
 45
0.0
1001
ACAD
1000
AcDbSavedByObjectVersion
1070
     0
  0
VISUALSTYLE
  5
3A
102
{ACAD_REACTORS
330
2A
102
}
330
2A
100
AcDbVisualStyle
  2
ColorChange
 70
    16
 71
     2
 72
     2
 73
     3
 90
        0
 40
-0.6
 41
-30.0
 62
     5
 63
     8
421
  8421504
 74
     1
 91
        4
 64
     7
 65
   257
 75
     1
175
     1
 42
1.0
 92
        8
 66
     8
424
  8421504
 43
1.0
 76
     1
 77
     6
 78
     2
 67
     7
 79
     5
170
     0
171
     0
290
     0
174
     0
 93
        1
 44
0.0
173
     0
291
     1
 45
0.0
1001
ACAD
1000
AcDbSavedByObjectVersion
1070
     0
  0
VISUALSTYLE
  5
34
102
{ACAD_REACTORS
330
2A
102
}
330
2A
100
AcDbVisualStyle
  2
Conceptual
 70
     9
 71
     3
 72
     2
 73
     0
 90
        0
 40
-0.6
 41
-30.0
 62
     5
 63
     7
421
 16777215
 74
     2
 91
        2
 64
     7
 65
   257
 75
     1
175
     1
 42
40.0
 92
        8
 66
     7
 43
1.0
 76
     1
 77
     6
 78
     2
 67
     7
 79
     3
170
     0
171
     0
290
     0
174
     0
 93
        1
 44
0.0
173
     0
291
     0
 45
0.0
1001
ACAD
1000
AcDbSavedByObjectVersion
1070
     0
  0
VISUALSTYLE
  5
35
102
{ACAD_REACTORS
330
2A
102
}
330
2A
100
AcDbVisualStyle
  2
Dim
 70
    11
 71
     2
 72
     2
 73
     0
 90
        0
 40
-0.6
 41
-30.0
 62
     5
 63
     7
421
 16777215
 74
     1
 91
        4
 64
     7
 65
   257
 75
     1
175
     1
 42
1.0
 92
        8
 66
     7
 43
1.0
 76
     1
 77
     6
 78
     2
 67
     7
 79
     5
170
     0
171
     0
290
     0
174
     0
 93
        1
 44
-50.0
173
     0
291
     1
 45
0.0
1001
ACAD
1000
AcDbSavedByObjectVersion
1070
     0
  0
VISUALSTYLE
  5
39
102
{ACAD_REACTORS
330
2A
102
}
330
2A
100
AcDbVisualStyle
  2
Facepattern
 70
    15
 71
     2
 72
     2
 73
     0
 90
        0
 40
-0.6
 41
-30.0
 62
     5
 63
     7
421
 16777215
 74
     1
 91
        4
 64
     7
 65
   257
 75
     1
175
     1
 42
1.0
 92
        8
 66
     7
 43
1.0
 76
     1
 77
     6
 78
     2
 67
     7
 79
     5
170
     0
171
     0
290
     0
174
     0
 93
        1
 44
0.0
173
     0
291
     1
 45
0.0
1001
ACAD
1000
AcDbSavedByObjectVersion
1070
     0
  0
VISUALSTYLE
  5
2B
102
{ACAD_REACTORS
330
2A
102
}
330
2A
100
AcDbVisualStyle
  2
Flat
 70
     0
 71
     2
 72
     1
 73
     1
 90
        2
 40
-0.6
 41
30.0
 62
     5
 63
     7
421
 16777215
 74
     0
 91
        4
 64
     7
 65
   257
 75
     1
175
     1
 42
1.0
 92
        8
 66
     7
 43
1.0
 76
     1
 77
     6
 78
     2
 67
     7
 79
     5
170
     0
171
     0
290
     0
174
     0
 93
       13
 44
0.0
173
     0
291
     1
 45
0.0
1001
ACAD
1000
AcDbSavedByObjectVersion
1070
     0
  0
VISUALSTYLE
  5
2C
102
{ACAD_REACTORS
330
2A
102
}
330
2A
100
AcDbVisualStyle
  2
FlatWithEdges
 70
     1
 71
     2
 72
     1
 73
     1
 90
        2
 40
-0.6
 41
30.0
 62
     5
 63
     7
421
 16777215
 74
     1
 91
        4
 64
     7
 65
   257
 75
     1
175
     1
 42
1.0
 92
        0
 66
   257
 43
1.0
 76
     1
 77
     6
 78
     2
 67
     7
 79
     5
170
     0
171
     0
290
     0
174
     0
 93
       13
 44
0.0
173
     0
291
     1
 45
0.0
1001
ACAD
1000
AcDbSavedByObjectVersion
1070
     0
  0
VISUALSTYLE
  5
2D
102
{ACAD_REACTORS
330
2A
102
}
330
2A
100
AcDbVisualStyle
  2
Gouraud
 70
     2
 71
     2
 72
     2
 73
     1
 90
        2
 40
-0.6
 41
30.0
 62
     5
 63
     7
421
 16777215
 74
     0
 91
        4
 64
     7
 65
   257
 75
     1
175
     1
 42
1.0
 92
        0
 66
     7
 43
1.0
 76
     1
 77
     6
 78
     2
 67
     7
 79
     5
170
     0
171
     0
290
     0
174
     0
 93
       13
 44
0.0
173
     0
291
     1
 45
0.0
1001
ACAD
1000
AcDbSavedByObjectVersion
1070
     0
  0
VISUALSTYLE
  5
2E
102
{ACAD_REACTORS
330
2A
102
}
330
2A
100
AcDbVisualStyle
  2
GouraudWithEdges
 70
     3
 71
     2
 72
     2
 73
     1
 90
        2
 40
-0.6
 41
30.0
 62
     5
 63
     7
421
 16777215
 74
     1
 91
        4
 64
     7
 65
   257
 75
     1
175
     1
 42
1.0
 92
        0
 66
   257
 43
1.0
 76
     1
 77
     6
 78
     2
 67
     7
 79
     5
170
     0
171
     0
290
     0
174
     0
 93
       13
 44
0.0
173
     0
291
     1
 45
0.0
1001
ACAD
1000
AcDbSavedByObjectVersion
1070
     0
  0
VISUALSTYLE
  5
38
102
{ACAD_REACTORS
330
2A
102
}
330
2A
100
AcDbVisualStyle
  2
Linepattern
 70
    14
 71
     2
 72
     2
 73
     0
 90
        0
 40
-0.6
 41
-30.0
 62
     5
 63
     7
421
 16777215
 74
     1
 91
        4
 64
     7
 65
   257
 75
     7
175
     7
 42
1.0
 92
        8
 66
     7
 43
1.0
 76
     1
 77
     6
 78
     2
 67
     7
 79
     5
170
     0
171
     0
290
     0
174
     0
 93
        1
 44
0.0
173
     0
291
     1
 45
0.0
1001
ACAD
1000
AcDbSavedByObjectVersion
1070
     0
  0
VISUALSTYLE
  5
33
102
{ACAD_REACTORS
330
2A
102
}
330
2A
100
AcDbVisualStyle
  2
Realistic
 70
     8
 71
     2
 72
     2
 73
     0
 90
        0
 40
-0.6
 41
-30.0
 62
     5
 63
     7
421
 16777215
 74
     1
 91
        0
 64
     7
 65
   257
 75
     1
175
     1
 42
1.0
 92
        8
 66
     8
424
  7895160
 43
1.0
 76
     1
 77
     6
 78
     2
 67
     7
 79
     5
170
     0
171
     0
290
     0
174
     0
 93
       13
 44
0.0
173
     0
291
     0
 45
0.0
1001
ACAD
1000
AcDbSavedByObjectVersion
1070
     0
  0
VISUALSTYLE
  5
37
102
{ACAD_REACTORS
330
2A
102
}
330
2A
100
AcDbVisualStyle
  2
Thicken
 70
    13
 71
     2
 72
     2
 73
     0
 90
        0
 40
-0.6
 41
-30.0
 62
     5
 63
     7
421
 16777215
 74
     1
 91
        4
 64
     7
 65
   257
 75
     1
175
     1
 42
1.0
 92
       12
 66
     7
 43
1.0
 76
     1
 77
     6
 78
     2
 67
     7
 79
     5
170
     0
171
     0
290
     0
174
     0
 93
        1
 44
0.0
173
     0
291
     1
 45
0.0
1001
ACAD
1000
AcDbSavedByObjectVersion
1070
     0
  0
ENDSEC
  0
EOF
